<svg id="Layer_1" data-name="Layer 1" xmlns="http://www.w3.org/2000/svg" viewBox="0 0 1157.51 414"><defs><style>.cls-1{fill:#fff;}</style></defs><title>logo</title><path class="cls-1" d="M305.86,296.68c-5.33-7.46-7.15-23.63-7.67-37.58,0-.9-.07-1.82-.09-2.75-.11-4.41-.11-8.51-.06-11.92V131.53h50.79V107.4H298V35.8L263.38,46.49l.76,60.91H233.19l0,24.13h30.23V254.22c0,26.49,3.63,46.48,13.71,58.56,8.47,11.15,17.76,17.77,34.29,17.77,13.71,0,34.21-14.66,34.21-27.69l.11,0C333.61,313.47,316,310.86,305.86,296.68Z"/><path class="cls-1" d="M159.48,182.26c-3.28,0-6.49,0-9.66.09s-6.69.3-10.65.41c-74.08,4-114.93,33.18-114.93,83.15,0,32.53,23.23,64.6,68.78,64.6,28.65,0,51.34-12.3,64.35-27.9,1-1.25,6.72-9.78,6.72-9.78s41.79,40.95,58.08,37.69c-8.14-6.52-22.26-38-22.26-59V187.37a127.39,127.39,0,0,0-3-27.52c-3.1-13.85-8.78-27.74-18-39C166.17,105.2,146.69,94.59,118,96.06c14.79,7.12,24.6,19.21,31.12,32.12A119.16,119.16,0,0,1,158.93,157a136.31,136.31,0,0,1,3,25.38M74.67,292.52c-17.14-18.07-15.81-47.16,3-65S162,209.65,162,209.65s-3.49,65.47-22.28,83.3S91.81,310.59,74.67,292.52Z"/><path class="cls-1" d="M626.89,95.35c-47.93.71-67,59.35-67,59.35-9-26.49-33.38-59.74-61.69-59.35-51.55.71-67,54.46-67,54.46S413.3,107.47,388.86,101c8.14,14.66,9.82,39.92,9.82,60.39V325.4h36.89V189.7c0-5.45-.32-5.26.9-18.85.06-.64.39-2.69.46-3.39a25.07,25.07,0,0,1,1.08-5.55c6.49-19.67,23.24-34.54,43.24-34.77a41.89,41.89,0,0,1,20.07,4.94,38.48,38.48,0,0,1,17.26,15.6A56.4,56.4,0,0,1,528.24,179c0,.43,0,.88-.05,1.32.29,3.35.47,6.78.47,10.34V325.4h36.89s.86-109.89.86-144.63c0-7.43,9.77-53.75,46.75-52,30.42,1.48,45,26,45,69.24V325.4H695.1V193C695.1,114.87,654.34,94.95,626.89,95.35Z"/><path class="cls-1" d="M1074.25,197.12c-11.12-4.24-19.94-8.07-26.63-12.21a42,42,0,0,1-5.62-4l-.18-.15c-.81-.68-1.59-1.38-2.35-2.13l-.08-.08a41.72,41.72,0,0,1-4.75-5.46c-14-19.48-8.9-47.06,11.35-61.61,12.47-9,40-11.39,61-8a119.69,119.69,0,0,0-37-5.85c-48.33,0-77.61,29.74-77.61,66,0,27,19.06,49.26,59.49,63.67a164.37,164.37,0,0,1,16.66,7.09,54.09,54.09,0,0,1,15.47,10.35l.23.22a51.81,51.81,0,0,1,13.06,20.39c8.68,25.16-3.15,52.55-26.69,65.24,40-6.57,62.6-31.82,62.6-65.65C1133.27,231.51,1113.28,212,1074.25,197.12Z"/><path class="cls-1" d="M935.83,128.81q-33.06-33.55-86.64-33.56t-87.14,33.56q-33,33-33,84.13,0,50.59,33,84.64,34.05,33,87.14,33.05,53.58,0,86.64-33.05,33.55-33.55,33.55-84.64T935.83,128.81ZM856.94,310.65a91.33,91.33,0,1,1,91.33-91.33A91.33,91.33,0,0,1,856.94,310.65Z"/></svg>